<svg xmlns="http://www.w3.org/2000/svg" viewBox="14.18 19.3 132.54 100.31" width="116" height="88" role="img" aria-label="pair"><style>.w{fill:#1f2328}</style><path class="w" transform="translate(12.00 104) scale(0.07 -0.07)" d="M134 -189Q97 -189 77.5 -169.5Q58 -150 58 -112V423Q58 460 77.5 479.5Q97 499 132 499Q169 499 188.0 479.5Q207 460 207 423V355L196 394Q211 442 256.5 471.5Q302 501 361 501Q425 501 473.5 470.0Q522 439 549.0 382.0Q576 325 576 246Q576 167 549.0 109.0Q522 51 474.0 20.0Q426 -11 361 -11Q303 -11 258.0 17.5Q213 46 197 92H209V-112Q209 -150 189.5 -169.5Q170 -189 134 -189ZM316 102Q348 102 372.5 118.0Q397 134 410.5 165.5Q424 197 424 246Q424 319 394.0 353.5Q364 388 316 388Q284 388 259.5 373.0Q235 358 221.0 326.5Q207 295 207 246Q207 173 237.0 137.5Q267 102 316 102Z"/><path fill="#4d6ef2" transform="translate(55.92 104) scale(0.07 -0.07)" d="M224 -11Q170 -11 127.0 10.0Q84 31 60.0 67.0Q36 103 36 148Q36 202 64.0 233.5Q92 265 155.0 278.5Q218 292 322 292H375V214H323Q272 214 240.5 208.5Q209 203 195.5 190.0Q182 177 182 154Q182 126 201.5 108.0Q221 90 258 90Q287 90 309.5 103.5Q332 117 345.0 140.5Q358 164 358 194V309Q358 353 338.0 371.5Q318 390 270 390Q243 390 211.5 383.5Q180 377 142 362Q120 352 103.0 357.5Q86 363 77.0 377.5Q68 392 68.0 409.5Q68 427 78.0 443.5Q88 460 111 468Q158 487 199.5 494.0Q241 501 276 501Q353 501 402.5 478.5Q452 456 477.0 409.5Q502 363 502 290V68Q502 31 484.0 11.0Q466 -9 432 -9Q398 -9 379.5 11.0Q361 31 361 68V105L368 99Q362 65 342.5 40.5Q323 16 293.0 2.5Q263 -11 224 -11Z"/><path fill="#4d6ef2" transform="translate(96.02 104) scale(0.07 -0.07)" d="M134 -8Q97 -8 77.5 13.5Q58 35 58 74V416Q58 456 77.5 477.5Q97 499 134 499Q170 499 189.5 477.5Q209 456 209 416V74Q209 35 190.0 13.5Q171 -8 134 -8Z"/><path class="w" transform="translate(115.32 104) scale(0.07 -0.07)" d="M136 -9Q98 -9 78.0 11.0Q58 31 58 68V423Q58 460 77.5 479.5Q97 499 132 499Q168 499 187.0 479.5Q206 460 206 423V371H196Q208 431 249.0 464.0Q290 497 355 501Q380 503 393.5 488.5Q407 474 408 441Q410 410 395.5 392.0Q381 374 347 370L324 368Q267 363 239.5 335.0Q212 307 212 254V68Q212 31 192.5 11.0Q173 -9 136 -9Z"/><g transform="rotate(-10 105.64 64.07)"><path d="M99.3 24.9H121.19A8.64 8.64 0 0 1 129.83 33.54V45.06A8.64 8.64 0 0 1 121.19 53.7H111.11L105.64 64.07L101.89 53.7H99.3A8.64 8.64 0 0 1 90.66 45.06V33.54A8.64 8.64 0 0 1 99.3 24.9Z" fill="#4d6ef2"/><path d="M106.36 34.81L101.43 39.3L106.36 43.8M114.13 34.81L119.06 39.3L114.13 43.8M111.97 33.6L108.52 45.01" stroke="#ffffff" fill="none" stroke-width="2.02" stroke-linecap="round" stroke-linejoin="round"/></g></svg>